HIERARCHY
ROOT Hips
{
  OFFSET 3.13124 94.3669 -3.18751
  CHANNELS  6 Xposition Yposition Zposition Zrotation Xrotation Yrotation
  JOINT LeftUpLeg
  {
    OFFSET 8.64259 1.95398 -2.38835
    CHANNELS 3 Zrotation Xrotation Yrotation
    JOINT LeftLeg
    {
      OFFSET 43.7702 0 0
      CHANNELS 3 Zrotation Xrotation Yrotation
      JOINT LeftFoot
      {
        OFFSET 40.6238 0 0
        CHANNELS 3 Zrotation Xrotation Yrotation
        JOINT LeftToeBase
        {
          OFFSET 12.7242 0 0
          CHANNELS 3 Zrotation Xrotation Yrotation
          End Site
          {
            OFFSET 0 0 0
          }
        }
      }
    }
  }
  JOINT RightUpLeg
  {
    OFFSET -8.2249 1.95398 -2.59336
    CHANNELS 3 Zrotation Xrotation Yrotation
    JOINT RightLeg
    {
      OFFSET 43.5653 0 0
      CHANNELS 3 Zrotation Xrotation Yrotation
      JOINT RightFoot
      {
        OFFSET 40.6238 0 0
        CHANNELS 3 Zrotation Xrotation Yrotation
        JOINT RightToeBase
        {
          OFFSET 12.7242 0 0
          CHANNELS 3 Zrotation Xrotation Yrotation
          End Site
          {
            OFFSET 0 0 0
          }
        }
      }
    }
  }
  JOINT Spine
  {
    OFFSET 0.165834 0.87714 6.61349
    CHANNELS 3 Zrotation Xrotation Yrotation
    JOINT Spine1
    {
      OFFSET 7.38962 1.71661e-005 0
      CHANNELS 3 Zrotation Xrotation Yrotation
      JOINT Spine2
      {
        OFFSET 11.9445 1.14441e-005 0
        CHANNELS 3 Zrotation Xrotation Yrotation
        JOINT Spine3
        {
          OFFSET 14.7254 4.19617e-005 0
          CHANNELS 3 Zrotation Xrotation Yrotation
          JOINT Spine4
          {
            OFFSET 10.9679 0 0
            CHANNELS 3 Zrotation Xrotation Yrotation
            JOINT RightShoulder
            {
              OFFSET 2.46616 -1.6653 3.69651
              CHANNELS 3 Zrotation Xrotation Yrotation
              JOINT RightArm
              {
                OFFSET 13.0012 0 0
                CHANNELS 3 Zrotation Xrotation Yrotation
                JOINT RightForeArm
                {
                  OFFSET 28.7848 1.52588e-005 0
                  CHANNELS 3 Zrotation Xrotation Yrotation
                  JOINT RightHand
                  {
                    OFFSET 26.5688 1.52588e-005 0
                    CHANNELS 3 Zrotation Xrotation Yrotation
                    End Site
                    {
                      OFFSET 0 0 0
                    }
                  }
                }
              }
            }
            JOINT LeftShoulder
            {
              OFFSET 2.38034 -1.29275 -3.75231
              CHANNELS 3 Zrotation Xrotation Yrotation
              JOINT LeftArm
              {
                OFFSET 16.3182 6.10352e-005 0
                CHANNELS 3 Zrotation Xrotation Yrotation
                JOINT LeftForeArm
                {
                  OFFSET 27.0901 0 0
                  CHANNELS 3 Zrotation Xrotation Yrotation
                  JOINT LeftHand
                  {
                    OFFSET 24.5451 1.52588e-005 0
                    CHANNELS 3 Zrotation Xrotation Yrotation
                    End Site
                    {
                      OFFSET 0 0 0
                    }
                  }
                }
              }
            }
            JOINT Neck
            {
              OFFSET 5.0226 -0.0266342 0
              CHANNELS 3 Zrotation Xrotation Yrotation
              JOINT Head
              {
                OFFSET 6.69363 2.86102e-005 0
                CHANNELS 3 Zrotation Xrotation Yrotation
                End Site
                {
                  OFFSET 0 0 0
                }
              }
            }
          }
        }
      }
    }
  }
}
MOTION
Frames:	5
Frame Time:	0.0333333
-3.37867 96.7681 -10.0611 64.9561 -89.9948 65.0586 -170.874 3.17646 92.0892 -9.61406 8.96739 1.69748 63.7245 1.31996 0.688403 28.7808 6.9286e-006 7.44409e-006 -179.256 2.0338 91.6493 -7.84285 0.944826 0.0511135 62.8542 -1.13501 -0.571221 28.7808 1.60657e-005 2.82454e-005 0.00825569 6.33672 -90.1041 14.1935 0.00581339 4.06672e-006 2.52251 0.00516684 -6.56152e-006 -20.0126 0.00990071 3.6583e-006 1.59028e-015 0.00990521 6.21202e-018 101.069 -18.3104 -84.9045 14.8178 46.8798 -39.4547 -3.27478 0.00468225 -4.91075 -5.37983 -0.320009 -0.0162356 -78.9989 -21.4294 94.2726 7.31476 -42.9632 -21.5011 2.02624 44.6675 -4.04228 -0.648716 -0.0396318 -0.580122 1.75651 0.00203812 0.00523331 -7.40753 -0.00171152 -0.00136912 
-3.38671 96.7521 -10.039 38.9529 -89.9559 39.0341 -170.89 3.20955 92.0605 -9.65578 9.03198 1.7087 63.8154 1.4856 0.783602 28.7808 6.9286e-006 7.44409e-006 -179.278 2.28801 91.6337 -8.32181 0.939261 0.0511134 63.0339 -1.16069 -0.589194 28.7808 1.60657e-005 2.82454e-005 0.00779425 6.33682 -90.0975 14.1935 0.00581339 4.06672e-006 2.52251 0.00516684 -6.56152e-006 -20.0126 0.00990071 3.6583e-006 3.18055e-015 0.00990521 6.21202e-018 101.131 -18.2306 -84.8691 14.8664 46.8095 -39.5421 -3.27478 0.00468225 -4.91075 -5.37983 -0.320009 -0.0162356 -78.9738 -21.3046 94.2275 7.28999 -42.8836 -21.4121 2.06566 44.6967 -4.12036 -0.899066 -0.0395399 -0.425972 1.80184 0.00225328 0.0829303 -7.36126 -0.0278977 -0.0212759 
-3.39011 96.7542 -10.0107 68.576 -89.9605 68.6612 -170.866 3.18528 92.078 -9.67383 9.06198 1.70285 63.7905 1.49676 0.789049 28.7808 6.9286e-006 7.44409e-006 -179.277 2.33669 91.6487 -8.50227 0.930934 0.0511133 63.1009 -1.31242 -0.678256 28.7808 1.60657e-005 2.82454e-005 0.00725999 6.33691 -90.0917 14.1935 0.00581339 4.06672e-006 2.52251 0.00516684 -6.56152e-006 -20.0126 0.00990071 3.6583e-006 1.59028e-015 0.00990521 4.65902e-018 101.119 -18.2297 -84.8606 14.8637 46.8172 -39.5492 -3.27478 0.00468225 -4.91075 -5.37983 -0.320009 -0.0162356 -78.9674 -21.154 94.2704 7.23244 -42.7972 -21.3955 1.98717 44.7262 -4.07661 -0.777082 -0.0356308 -0.431983 1.85556 0.00415251 0.0758716 -7.42866 -0.0335924 -0.016524 
-3.38278 96.762 -9.98969 71.6581 -89.9139 71.7287 -170.872 3.16977 92.0694 -9.62964 9.05658 1.69457 63.7519 1.32549 0.691569 28.7808 6.9286e-006 7.44409e-006 -179.273 2.08322 91.6189 -7.99767 1.00376 0.0511144 62.9777 -1.07991 -0.541404 28.7808 1.60657e-005 2.82454e-005 0.0079426 6.33678 -90.1002 14.1935 0.00581339 4.06672e-006 2.52251 0.00516684 -6.56152e-006 -20.0126 0.00990071 3.6583e-006 1.59028e-015 0.00990521 3.10601e-018 101.16 -18.1883 -84.8225 14.8628 46.8084 -39.5176 -3.27478 0.00468225 -4.91075 -5.37983 -0.320009 -0.0162356 -78.94 -21.0882 94.2612 7.30217 -42.687 -21.2892 1.66159 44.7517 -3.91861 0.203737 0.00127947 -0.287361 1.88283 -0.0161659 0.151048 -7.43436 -0.032644 -0.0834855 
-3.37329 96.7611 -9.96725 75.6895 -89.8964 75.7753 -170.862 3.15406 92.0794 -9.62217 9.09294 1.69391 63.7589 1.39709 0.732672 28.7808 6.9286e-006 7.44409e-006 -179.269 2.09927 91.6374 -8.06137 1.01544 0.0511693 62.9742 -1.23503 -0.631164 28.7808 1.60657e-005 2.82454e-005 0.00802957 6.33676 -90.1016 14.1934 0.00581339 2.257e-005 2.52245 0.00516684 1.24119e-005 -20.0127 0.00990071 2.03023e-005 -5.24028e-005 0.00990521 1.65018e-005 101.192 -18.1948 -84.7622 14.8836 46.7751 -39.5378 -3.27478 0.00468225 -4.91075 -5.37983 -0.320009 -0.0162356 -78.8889 -20.9509 94.3508 7.21466 -42.6949 -21.3258 1.79454 44.8195 -3.97476 -0.105496 -0.0115562 -0.379553 1.90669 -0.0206028 0.090625 -7.4671 -0.0283287 -0.0360185 
